<?xml version="1.0" encoding="utf-8"?>
<!-- Generator: Adobe Illustrator 19.0.0, SVG Export Plug-In . SVG Version: 6.00 Build 0)  -->
<svg version="1.1" id="bitbucket" xmlns="http://www.w3.org/2000/svg" xmlns:xlink="http://www.w3.org/1999/xlink" x="0px" y="0px"
	 viewBox="80.5 266.1 270 270" style="enable-background:new 80.5 266.1 270 270;" xml:space="preserve">
<style type="text/css">
	.st0{fill:#205081;}
</style>
<path class="st0" d="M737.8,443l-24.9-41.1l24-40.4c0.6-1,0.6-2.2,0-3.2s-1.6-1.6-2.7-1.6h-20.6c-1.1,0-2.2,0.6-2.7,1.6l-22.8,39.6
	v-72.7c0-1.7-1.4-3.2-3.2-3.2h-18.6c-1.7,0-3.2,1.4-3.2,3.2v119.9c0,1.7,1.4,3.1,3.2,3.1h18.6c1.7,0,3.2-1.4,3.2-3.1v-39.2
	l24.3,40.7c0.6,1,1.6,1.5,2.7,1.5h20.2l0,0c1.7,0,3.2-1.4,3.2-3.1C738.4,444.2,738.2,443.5,737.8,443z"/>
<g>
	<path class="st0" d="M215.5,286.9L215.5,286.9L215.5,286.9c-54.5,0-98.9,14.7-98.9,32.8c0,4.9,11.8,73.4,16.7,100.7
		c2.1,12.3,33.6,30.1,82.3,30.1v-0.2v0.2c48.7,0,80.2-17.9,82.3-30.1c4.7-27.2,16.7-95.9,16.7-100.7
		C314.3,301.6,269.8,286.9,215.5,286.9z M215.5,428.6c-17.3,0-31.4-14.1-31.4-31.4s14.1-31.4,31.4-31.4c17.3,0,31.4,14.1,31.4,31.4
		C246.9,414.5,232.8,428.6,215.5,428.6z M215.5,329.9c-34.9,0-63.4-6.1-63.4-13.6s28.5-13.4,63.4-13.4s63.4,6.1,63.4,13.6
		C278.7,323.9,250.4,329.9,215.5,329.9z"/>
	<path class="st0" d="M286.5,447.8c-1.5,0-2.7,1.1-2.7,1.1s-24.4,19.2-68.4,19.2c-44,0-68.4-19.2-68.4-19.2s-1.1-1.1-2.7-1.1
		c-1.8,0-3.6,1.1-3.6,3.9c0,0.3,0,0.5,0,0.8c3.7,20.2,6.5,34.6,7,36.7c3.2,14.9,32.3,26.2,67.4,26.2l0,0l0,0l0,0l0,0
		c35.1,0,64.2-11.2,67.4-26.2c0.5-2.3,3.2-16.5,7-36.7c0-0.3,0-0.5,0-0.8C290,448.9,288.3,447.8,286.5,447.8z"/>
	<circle class="st0" cx="215.5" cy="397" r="15.7"/>
</g>
</svg>
