<?xml version="1.0" encoding="utf-8"?>
<svg version="1.1" id="Calque_1" xmlns="http://www.w3.org/2000/svg" xmlns:xlink="http://www.w3.org/1999/xlink" x="0px" y="0px"
	 viewBox="-516.3 325.5 150 150" style="enable-background:new -516.3 325.5 150 150;" xml:space="preserve">
<style type="text/css">
	.st0{fill:#E03C31;}
	.st1{fill:#FFFFFF;}
</style>
<g>
	<circle class="st0" cx="-441.3" cy="400.5" r="65"/>
	<g>
		<path class="st1" d="M-452.9,444.5c0.8,1-0.1,2.3-1.4,2.2c-21.3-2.8-36.4-34.3-16.6-52.5c21.9-20.1,27-32.1,24.3-38.5
			c-0.4-0.9,0.5-1.7,1.3-1.3c7.3,3.6,23.8,14.5,18.3,38.2c0,0,9.6-0.1,9.8-9c0-0.9,1-1.3,1.7-0.6c4.2,3.8,14.1,14.7,12.9,29.1
			c-1.9,20.6-16.3,31.5-27,34.1c-1,0.3-1.9-0.9-1.3-1.9c3.1-4.5,8.4-13.8-2.8-22.9c-8.5-6.2-9.6-13-8.3-17.1
			c0.3-0.6-0.6-1.3-1.1-0.8C-465,421.9-457.3,438.3-452.9,444.5z"/>
	</g>
</g>
</svg>
