<?xml version="1.0" encoding="utf-8"?>
<!-- Generator: Adobe Illustrator 19.0.0, SVG Export Plug-In . SVG Version: 6.00 Build 0)  -->
<svg version="1.1" id="Layer_1" xmlns="http://www.w3.org/2000/svg" xmlns:xlink="http://www.w3.org/1999/xlink" x="0px" y="0px"
	 viewBox="-393 351 300 300" style="enable-background:new -393 351 300 300;" xml:space="preserve">
<style type="text/css">
	.st0{fill:url(#SVGID_1_);}
	.st1{fill:#F68B1F;}
	.st2{fill:url(#SVGID_2_);}
	.st3{fill:url(#SVGID_3_);}
	.st4{fill:url(#SVGID_4_);}
	.st5{fill:url(#SVGID_5_);}
	.st6{fill:url(#SVGID_6_);}
	.st7{fill:url(#SVGID_7_);}
</style>
<g>
	
		<radialGradient id="SVGID_1_" cx="-737.6322" cy="996.9259" r="0.4998" gradientTransform="matrix(97.1 0 0 -97 71456.1016 97209.7969)" gradientUnits="userSpaceOnUse">
		<stop  offset="0" style="stop-color:#FFFFFF"/>
		<stop  offset="0.1902" style="stop-color:#FCE800"/>
		<stop  offset="0.8593" style="stop-color:#EC8F27"/>
	</radialGradient>
	<path class="st0" d="M-172,476.9l5.8-20.1l0.8,0.1l0.6,21.1l10.8-17.9l1,0.5l-5.1,20.3l15.3-14.5l0.8,0.7l-10.3,18.4l18.6-9.9
		l0.6,0.7l-14.8,15.2l20.6-4.7l0.4,0.8l-18.2,10.7l21.1,0.8v0.9l-20.4,5.6l20.3,6v0.9l-21.1,0.3l17.9,11.2l-0.5,0.9l-20.4-5.1
		l14.4,15.2l-0.5,0.9l-18.2-10.5l9.7,18.5l-0.9,0.7l-15-14.7l5,20.3l-1,0.6l-10.7-18.2l-0.3,20.9l-1.1,0.3l-5.8-20.2l-6,20.2
		l-1.1-0.3v-20.9l-0.6-0.2l-11.6,17.5l5-20.3l-15.3,14.4l-0.9-0.7l10.5-18.2l-18.8,9.7l-0.6-0.7l14.8-14.9l-20.6,4.5l-0.3-0.8
		l18.3-10.7l-20.9-0.8l-0.4-0.9l20.3-5.7l-20-5.9l0.1-1l21-0.3l-17.8-10.8l0.1-1l20.6,5.2l-14.6-15.4l0.8-0.8l18.4,10.1l-10-18.3
		l0.6-0.7l15.4,14.8l-5-20.6l-0.2-0.3l12.2,18.2l0.2-21.2h1.2L-172,476.9z"/>
	<path class="st1" d="M-115,544.9c0-20.1-16.3-36.5-36.5-36.5c-8.1,0-15.6,2.7-21.7,7.2c0.8-3.8,1.2-7.8,1.2-11.8
		c0-33.6-27.2-60.8-60.8-60.8c-26.7,0-49.4,17.3-57.6,41.2c-4.6-3.4-10.2-5.5-16.4-5.5c-15.1,0-27.3,12.2-27.3,27.3
		c0,2.3,0.3,4.6,0.8,6.8c-20.9,0.7-37.7,17.9-37.7,39c0,2.5,0.2,4.9,0.7,7.2h252.5C-116,554.6-115,549.9-115,544.9L-115,544.9z"/>
	
		<linearGradient id="SVGID_2_" gradientUnits="userSpaceOnUse" x1="-738.0392" y1="997.2704" x2="-738.0392" y2="997.7375" gradientTransform="matrix(107.2 0 0 -101.9 78885 102113)">
		<stop  offset="0" style="stop-color:#F68B1F"/>
		<stop  offset="1" style="stop-color:#FFFFFF"/>
	</linearGradient>
	<path class="st2" d="M-179.2,503.8c0,29.6-24.1,48.3-53.7,48.3s-53.5-18.7-53.5-48.3c0-29.6,24-53.6,53.6-53.6
		S-179.2,474.2-179.2,503.8"/>
	<path class="st1" d="M-187.4,504.1c0,18.1-20.5,32.8-45.7,32.8c-25.3,0-45.7-14.7-45.7-32.8s20.5-32.8,45.7-32.8
		C-207.8,471.4-187.4,486-187.4,504.1"/>
	
		<linearGradient id="SVGID_3_" gradientUnits="userSpaceOnUse" x1="-732.6304" y1="991.1099" x2="-732.3698" y2="990.6515" gradientTransform="matrix(40.6 0 0 -40.6 29427.2988 40726.0977)">
		<stop  offset="0" style="stop-color:#FFFFFF"/>
		<stop  offset="4.820809e-02" style="stop-color:#FEF6ED"/>
		<stop  offset="0.2569" style="stop-color:#FBD0A5"/>
		<stop  offset="0.4442" style="stop-color:#F9B26B"/>
		<stop  offset="0.6034" style="stop-color:#F79D42"/>
		<stop  offset="0.7282" style="stop-color:#F69028"/>
		<stop  offset="0.8033" style="stop-color:#F68B1F"/>
	</linearGradient>
	<circle class="st3" cx="-306.6" cy="506.2" r="20.3"/>
	<path class="st1" d="M-290.2,498.5c3.4,5.9-0.9,14.9-9.6,19.9c-8.7,5-18.6,4.3-22-1.6c-3.4-5.9,0.9-14.9,9.6-19.9
		C-303.4,491.8-293.6,492.6-290.2,498.5"/>
	
		<linearGradient id="SVGID_4_" gradientUnits="userSpaceOnUse" x1="-736.2485" y1="989.1365" x2="-735.3512" y2="986.3905" gradientTransform="matrix(63.8 0 0 -32.1 46604.6016 32242.998)">
		<stop  offset="0" style="stop-color:#FFFFFF"/>
		<stop  offset="4.820809e-02" style="stop-color:#FEF6ED"/>
		<stop  offset="0.2569" style="stop-color:#FBD0A5"/>
		<stop  offset="0.4442" style="stop-color:#F9B26B"/>
		<stop  offset="0.6034" style="stop-color:#F79D42"/>
		<stop  offset="0.7282" style="stop-color:#F69028"/>
		<stop  offset="0.8033" style="stop-color:#F68B1F"/>
	</linearGradient>
	<path class="st4" d="M-300.2,551.7c0-17.6-14.3-31.9-31.9-31.9s-31.9,14.3-31.9,31.9v0.2h63.8V551.7L-300.2,551.7z"/>
	
		<linearGradient id="SVGID_5_" gradientUnits="userSpaceOnUse" x1="-734.9467" y1="989.6908" x2="-735.0976" y2="988.9696" gradientTransform="matrix(58.2 0 0 -35.7 42633.0977 35845.8984)">
		<stop  offset="0" style="stop-color:#FFFFFF"/>
		<stop  offset="4.820809e-02" style="stop-color:#FEF6ED"/>
		<stop  offset="0.2569" style="stop-color:#FBD0A5"/>
		<stop  offset="0.4442" style="stop-color:#F9B26B"/>
		<stop  offset="0.6034" style="stop-color:#F79D42"/>
		<stop  offset="0.7282" style="stop-color:#F69028"/>
		<stop  offset="0.8033" style="stop-color:#F68B1F"/>
	</linearGradient>
	<path class="st5" d="M-122.1,544.6c0-16.1-13-29.1-29.1-29.1s-29.1,13-29.1,29.1c0,2.3,0.3,4.5,0.8,6.6h56.7
		C-122.3,549-122.1,546.8-122.1,544.6L-122.1,544.6z"/>
	
		<linearGradient id="SVGID_6_" gradientUnits="userSpaceOnUse" x1="-739.9832" y1="986.4134" x2="-739.9832" y2="985.4193" gradientTransform="matrix(244.6 0 0 -28.3 180757.5 28441.2031)">
		<stop  offset="0" style="stop-color:#F68B1F"/>
		<stop  offset="0.5308" style="stop-color:#CB672F"/>
		<stop  offset="1" style="stop-color:#A1453F"/>
	</linearGradient>
	<path class="st6" d="M-120.8,552.2l-1.1-2.2l-1.2-2l-1.7-2.6l-1.7-2.2l-2-2.5l-2.1-2.2l-2.4-2.3l-2.2-1.9l-2.6-1.8l-2.5-1.5
		l-2.8-1.6l-2.3-1.2l-2.4-1l-2.2-0.6l-2.2-0.4l-2.1-0.4l-2.6-0.2l-164.9,0.3l-2.6,0.1l-2.7,0.2l-2.9,0.3l-2.4,0.5l-3.1,0.7l-2.1,0.7
		l-2.3,0.9l-2.3,0.8l-2.9,1.5l-2.1,1l-2.8,1.8l-2.5,2l-2.7,2.1l-2.3,2.3l-1.8,2.2l-1.9,2.5l-1.4,2.5l-1.1,2.2l-0.6,2l-0.4,1.7h244.6
		L-120.8,552.2z"/>
	
		<radialGradient id="SVGID_7_" cx="-738.5471" cy="991.6592" r="0.5163" gradientTransform="matrix(125.8 0 0 -45.3 92700.5 45444.6016)" gradientUnits="userSpaceOnUse">
		<stop  offset="0" style="stop-color:#FFFFFF"/>
		<stop  offset="0.1334" style="stop-color:#FCE800"/>
		<stop  offset="0.8593" style="stop-color:#EC8F27"/>
	</radialGradient>
	<path class="st7" d="M-168.4,510.8l22.1,28.9l-0.8,0.6l-25.8-23.2l-99.1,18l-0.1-0.9L-180,513l-50.7-17.2l0.6-0.8L-168.4,510.8z"/>
</g>
</svg>
