<?xml version="1.0" encoding="utf-8"?>
<!-- Generator: Adobe Illustrator 19.0.0, SVG Export Plug-In . SVG Version: 6.00 Build 0)  -->
<svg version="1.1" id="Layer_1" xmlns="http://www.w3.org/2000/svg" xmlns:xlink="http://www.w3.org/1999/xlink" x="0px" y="0px"
	 viewBox="-565.5 355.5 150 90" style="enable-background:new -565.5 355.5 150 90;" xml:space="preserve">
<style type="text/css">
	.st0{fill:#D95947;}
</style>
<title>craft-cms-logo</title>
<g id="Page-1">
	<g id="craft-cms-logo">
		<path id="Fill-1" class="st0" d="M-433.4,397.1h10.8l1.3-6.7h-10.8l1.9-9.7l-8.2,6.5l-0.6,3.2h-8.5l2.5-13.1
			c0.6-4.9,8.1-3.4,9.3-3.1l1.2-6.3c-13.5-5.2-17.5,9.4-17.5,9.4l-2.5,13.1l-8.5,6.7h7.2l-8,41.9h7l8-41.9h8.5l-3.1,16.4
			c-1.9,11.9,10,10.7,13.8,9.8l1.2-6.2c-9.1,2-7.9-3.6-7.9-3.6L-433.4,397.1L-433.4,397.1z"/>
		<path id="Fill-3" class="st0" d="M-475.1,414.4c-7.3,7.5-12,2.6-12,2.6c-3.1-3.1,0.4-6.3,0.4-6.3c4.8-4.4,12.3,0.5,12.3,0.5
			L-475.1,414.4L-475.1,414.4z M-473.5,405.3c0,0-10.1-5.2-17.1,0.6c0,0-4.2,2.8-4.2,8.2c0,5.6,5.1,8.5,5.1,8.5s7.6,4,13.6-2.4
			l-0.6,3h6.7l4.2-19.9c3.1-19.6-20.2-12.7-20.2-12.7l-1.3,7c17.2-7.5,14.4,5.6,14.4,5.6L-473.5,405.3L-473.5,405.3z"/>
		<path id="Fill-5" class="st0" d="M-492.1,390.6c-5.5,0.1-10.4,3.1-10.4,3.1l0.6-3h-6.5l-5.9,32.6h6.7l4.1-21.5
			c3-6,10.4-4.2,10.4-4.2L-492.1,390.6L-492.1,390.6z"/>
		<g id="Group-9">
			<path id="Fill-7" class="st0" d="M-517.6,376.6c0.4,0.3,0.6,0.6,0.9,0.8l5.1-4l0.2-0.2c-0.7-0.7-1.6-1.5-2.5-2.2
				c-11.6-8.8-29.2-5.1-39.2,8.1c-10,13.2-8.7,31.1,2.9,39.9c9.4,7.1,22.9,6,33-1.9l-4.8-3.8c-7.5,4.8-16.8,5.2-23.4,0.1
				c-8.9-6.8-9.9-20.5-2.2-30.7C-540,372.7-526.5,369.8-517.6,376.6"/>
		</g>
	</g>
</g>
</svg>
