<svg xmlns="http://www.w3.org/2000/svg" viewBox="0 0 400 400"><style>.st0 {fill: #14A4E3;}</style><path class="st0" d="M216.778 385.712c40.653-10.966 70.577-48.08 70.577-92.198 0-26.672-10.945-50.778-28.573-68.105 32.745-7.43 57.197-36.693 57.197-71.686 0-9.725-1.907-19-5.336-27.497 28.642 30.668 49.6 63.927 49.6 101.025 0 82.623-62.927 150.537-143.466 158.46zM96.343 293.514c0-50.11 38.602-91.18 87.688-95.16-9.47-12.377-15.107-27.842-15.107-44.63 0-40.608 32.92-73.528 73.528-73.528 8.22 0 16.113 1.368 23.492 3.856-29.475-25.48-60.04-49.366-82.192-72.545 30.712 94.184-141.994 79.17-141.994 215.745 0 67.417 41.915 125.006 101.09 148.24-27.852-16.685-46.503-47.15-46.503-81.978zm95.506-56.39c-31.144 0-56.39 25.247-56.39 56.39s25.246 56.39 56.39 56.39 56.39-25.247 56.39-56.39c0-31.142-25.248-56.39-56.39-56.39zm6.42-83.4c0 24.4 19.78 44.18 44.18 44.18s44.182-19.78 44.182-44.18-19.78-44.18-44.18-44.18-44.182 19.78-44.182 44.18z"/></svg>