<svg viewBox="0 0 186 186" style="background-color:#ffffff00" xmlns="http://www.w3.org/2000/svg" width="186" height="186"><g fill="#221e1f"><path d="M98.413 69.506c1.086-1.085 1.086-2.842 0-3.926s-2.844-1.084-3.93 0c-1.086 1.084-1.086 2.84 0 3.926 1.086 1.084 2.844 1.084 3.93 0zM88.61 71.446c-1.085 1.084-1.085 2.84 0 3.926 1.085 1.084 2.845 1.084 3.93 0 1.085-1.085 1.085-2.842 0-3.926s-2.845-1.084-3.93 0zM105.66 72.89c-1.697-1.697-4.45-1.695-6.148 0l-3.617 3.613c-1.7 1.698-1.7 4.448 0 6.143l3.97 3.97c1.7 1.696 4.453 1.694 6.15 0L109.633 83c1.7-1.698 1.7-4.448 0-6.145l-3.97-3.967zM140.033 59.434c4.59-8.73-1.903-13.83-6.365-18.016-7.148-6.712-14.277-9.613-22.42-.32-8.137 9.294-2.967 20.073 4.476 25.393 7.447 5.32 19.713 1.672 24.31-7.056zm-12.33-3.58c-2.868-3.434 2.493-9.667 5.857-5.945 6.195 6.857-2.984 9.377-5.857 5.944z"/><path d="M92.78.642C41.54.642 0 42.136 0 93.318 0 144.503 41.54 186 92.78 186c51.236 0 92.775-41.497 92.775-92.682 0-51.182-41.54-92.676-92.776-92.676zm50.17 107.865c-9.676-6.387-15.204-11.784-20.02-21.46-3.293 6.63-10.983 16.488-23.954 24.243-6.475 20.123-37.278 58.634-47.247 53.175-2.953-1.615-3.514-3.742-2.847-5.936.715-5.502 12.107-18.145 12.107-18.145s.24 2.653 3.885 8.24c-4.814-14.926 7.953-33.344 11.335-39.614 5.314-1.69 5.7-8.508 5.7-8.508.34-10.536-4.372-18.164-8.938-22.726 3.28 4 4.342 10.044 4.498 15.58v.03c.017.625.017 1.24.014 1.85-.156 4.582-1.543 10.912-4.512 10.912l.01.04c-3.053-.13-6.822.52-10.19 1.572l-7.442 1.776s3.97-.18 6.113 1.67c-2.387 3.882-7.693 8.7-13.61 11.44-8.61 3.988-11.085-3.95-6.714-9.11 1.073-1.262 2.157-2.325 3.182-3.197-.66-.683-1.076-1.596-1.185-2.755 0-.006-.006-.012-.007-.017-.6-2.634-.27-6.053 3.46-11.487.737-1.15 1.62-2.328 2.678-3.526.034-.04.062-.08.096-.12.046-.054.097-.106.144-.16l.08-.09c.266-.303.55-.6.852-.884 4.446-4.548 11.467-9.278 22.532-13.524 12.904-18.947 17.63-22.5 17.63-22.5 1.428-1.46 3.925-3.274 4.843-3.737-6.74-11.697-8.1-28.187-6.334-32.63-.142.24-.274.486-.383.74.654-1.52 1.093-2.01 1.773-2.81 1.84-2.175 8.078-3.315 10.317 1.292 1.193 2.457 1.42 5.638 1.38 8.024-4.94-.257-9.42 5.377-9.42 5.377s4.09-1.93 9.173-1.963c0 0 1.355 1.177 3.045 3.387-2.282 4.28-6.034 13.35-3.317 22.87.45 1.876 1.13 3.49 1.976 4.86.032.06.06.12.092.18.068.09.13.163.192.245 4.492 6.755 12.726 7.546 12.726 7.546-3.876-1.932-7.033-5.01-9.09-8.74-1.067-1.995-1.722-3.68-2.124-5.01-2.18-8.41 1.03-13.32 2.867-16.613 4.228-6.55 11.93-10.515 20.206-9.57 11.617 1.323 19.96 11.805 18.633 23.407-.81 7.088-5.042 12.95-10.858 16.14 1.4 3.783-.096 8.367-.096 8.367 3.522 4.425 3.677 6.977 3.556 9.347-4.477-.752-8.826 2.265-8.826 2.265s8.636-2.06 13.653 2.41c3.263 3.507 5.44 6.675 6.736 9.015 1.858 3.337 10.483 3.575 9.5 9.576-.982 5.993-7.56 6.05-17.87-.746z"/></g></svg>