<svg xmlns="http://www.w3.org/2000/svg" viewBox="0 0 400 400"><style>.st0 {fill: #e74430;}</style><path class="st0" d="M394.4 205.253c-2.592-2.917-38.458-47.814-44.778-55.43-6.32-7.62-9.4-6.24-13.29-5.674-3.892.566-49.273 8.184-54.54 9.075-5.268.89-8.59 3-5.348 7.537 2.883 4.036 32.717 46.332 39.288 55.647l-118.61 28.413-94.33-157.704c-3.754-5.57-4.534-7.514-13.08-7.125-8.546.388-73.997 5.826-78.66 6.215-4.66.39-9.778 2.464-5.116 13.47C10.598 110.686 84.93 270.864 87 275.525c2.073 4.66 7.46 12.223 20.072 9.193 12.922-3.105 57.733-14.8 82.218-21.213 12.94 23.43 39.324 70.955 44.204 77.764 6.515 9.09 11 7.587 21 4.556 7.81-2.366 122.192-43.5 127.344-45.62 5.152-2.12 8.334-3.637 4.85-8.79-2.563-3.787-32.738-44.21-48.542-65.358 10.825-2.88 49.316-13.13 53.42-14.24 4.78-1.297 5.43-3.647 2.835-6.565zM178.776 249.34c-1.418.303-67.85 16.202-71.395 17.013-3.545.81-3.544.405-3.95-.81-.405-1.216-78.986-163.247-80.077-165.273-1.092-2.026-1.034-3.63 0-3.63s62.74-5.516 64.922-5.63c2.183-.116 1.954.343 2.758 1.722 0 0 87.033 150.227 88.552 152.86s.608 3.444-.81 3.747zm187.304 35.107c1.06 1.667 2.12 2.728-1.214 3.94-3.333 1.212-112.432 38.033-114.553 38.942s-3.788 1.21-6.515-2.728c-2.727-3.94-38.223-65.368-38.223-65.368l115.652-30.093c2.88-.908 3.788-1.515 5.607 1.365 1.818 2.878 38.185 52.274 39.245 53.942zm7.414-82.11c-2.593.566-45.058 11.102-45.058 11.102l-34.73-47.653c-.974-1.377-1.784-2.755.647-3.08 2.43-.323 41.897-7.455 43.68-7.86 1.783-.405 3.323-.89 5.51 2.107 2.19 2.998 32.22 41.006 33.354 42.465 1.134 1.457-.81 2.348-3.403 2.916z"/></svg>