<?xml version="1.0" encoding="utf-8"?>
<!-- Generator: Adobe Illustrator 20.0.0, SVG Export Plug-In . SVG Version: 6.00 Build 0)  -->
<svg version="1.1" id="Layer_1" xmlns="http://www.w3.org/2000/svg" xmlns:xlink="http://www.w3.org/1999/xlink" x="0px" y="0px"
	 viewBox="0 0 72 72" style="enable-background:new 0 0 72 72;" xml:space="preserve">
<style type="text/css">
	.st0{fill:#F47721;}
	.st1{fill:#FFFFFF;}
	.st2{fill:#F36D21;}
</style>
<g>
	<g>
		<g>
			<path class="st0" d="M67.5,54.4c0,7.3-5.9,13.2-13.2,13.2H17.7c-7.3,0-13.2-5.9-13.2-13.2V17.6c0-7.3,5.9-13.2,13.2-13.2h36.7
				c7.3,0,13.2,5.9,13.2,13.2C67.5,17.6,67.5,54.4,67.5,54.4z"/>
		</g>
		<g>
			<path class="st1" d="M54.5,22.1c0.6-0.4,1.3-0.8,1.8-1.3c-0.3-1-0.8-1.8-1.4-2.7c-0.7,0.3-1.3,0.7-2,1c-0.4-0.3-0.8-0.7-1.4-1
				c0.1-0.7,0.3-1.5,0.4-2.2c-1-0.3-2-0.7-2.9-0.8c-0.3,0.7-0.4,1.4-0.7,2.1c-0.6,0-1.1,0.1-1.5,0.3c-0.4-0.6-0.8-1.3-1.3-1.8
				c-1,0.3-1.8,0.8-2.7,1.5c0.3,0.7,0.6,1.4,1,2.1c-0.4,0.4-0.7,0.8-1,1.3c-0.7-0.1-1.5-0.3-2.2-0.4c-0.3,1-0.6,2-0.8,2.9
				c0.7,0.3,1.4,0.6,2.1,0.7c0,0.6,0.1,1.1,0.1,1.7c-0.6,0.4-1.3,0.8-1.8,1.3c0.3,1,0.8,1.8,1.5,2.7c0.7-0.3,1.4-0.7,2.1-1
				c0.4,0.4,0.8,0.7,1.3,1c-0.1,0.7-0.3,1.5-0.4,2.2c1,0.4,2,0.6,2.9,0.7c0.1-0.7,0.4-1.4,0.7-2.1c0.6,0,1.1-0.1,1.7-0.1
				c0.4,0.6,0.8,1.3,1.3,1.8c1-0.4,1.8-0.8,2.5-1.5c-0.3-0.7-0.7-1.4-1-2.1c0.3-0.4,0.7-0.8,1-1.3c0.7,0.1,1.5,0.3,2.2,0.4
				c0.3-1,0.7-2,0.8-2.9c-0.7-0.1-1.4-0.4-2.1-0.7C54.8,23.2,54.6,22.7,54.5,22.1z M51.4,24.1c0,1.8-2,3.1-3.7,2.5
				c-1.5-0.4-2.5-2.2-2-3.8c0.3-1,1.1-1.5,2-1.8C49.6,20.4,51.5,22.1,51.4,24.1z"/>
		</g>
		<g>
			<circle class="st2" cx="48.3" cy="23.8" r="4.2"/>
		</g>
		<g>
			<path class="st1" d="M35.9,52.2c3.4-0.1,5.6,2.2,8.3,3.7c3.9,2.1,7.7,1.7,10.7-1.8c1.4-1.7,2.1-3.4,2.1-5.2l0,0
				c0-1.7-0.7-3.5-2-5.1c-2.9-3.7-6.7-3.7-10.7-1.7c-1.4,0.7-2.7,1.8-4.2,2.5c-3.7,1.7-7.2,1.5-10.4-1.4c-3.2-3.1-4.4-6.6-2.4-10.7
				c0.7-1.4,1.7-2.8,2.4-4.2c2.2-4.1,2.7-8.1-1.1-11.4c-1.5-1.4-3.4-2-5.1-2l0,0c-1.7,0-3.5,0.7-5.2,2c-3.9,3.1-4.4,7.4-1.7,11.2
				c3.9,5.5,4.4,10.4,0.1,15.9c-2.7,3.5-2.7,7.6,0.7,10.8c1.7,1.7,3.5,2.4,5.3,2.4l0,0c1.8,0,3.8-0.7,5.6-1.8
				C30.9,53.8,33,51.9,35.9,52.2z"/>
		</g>
	</g>
</g>
</svg>
