<?xml version="1.0" encoding="utf-8"?>
<!-- Generator: Adobe Illustrator 19.0.0, SVG Export Plug-In . SVG Version: 6.00 Build 0)  -->
<svg version="1.1" id="Candidate_1_" xmlns="http://www.w3.org/2000/svg" xmlns:xlink="http://www.w3.org/1999/xlink" x="0px"
	 y="0px" viewBox="-37 351 300 300" style="enable-background:new -37 351 300 300;" xml:space="preserve">
<style type="text/css">
	.st0{fill:#407DB8;}
	.st1{fill:url(#SVGID_1_);}
	.st2{clip-path:url(#SVGID_3_);}
	.st3{fill:#162331;}
	.st4{fill:#5592C8;}
	.st5{fill:#88BCE8;}
</style>
<g>
	<g>
		<path class="st0" d="M139.4,613.7V607h11.4v6.7c0,3.2-2.6,5.8-5.8,5.8C141.9,619.5,139.4,616.9,139.4,613.7z"/>
		<path class="st0" d="M107.4,613.7V607H119v6.7c0,3.2-2.6,5.8-5.8,5.8C110,619.5,107.4,616.9,107.4,613.7z"/>
		<path class="st0" d="M75.3,613.7V607h11.6v6.7c0,3.2-2.6,5.8-5.8,5.8S75.3,616.9,75.3,613.7z"/>
	</g>
	<path class="st0" d="M161.9,599.8l-5.3,8.8H69.2l-4.9-8.8H161.9z"/>
	
		<linearGradient id="SVGID_1_" gradientUnits="userSpaceOnUse" x1="-24.5767" y1="166.4793" x2="47.504" y2="166.4793" gradientTransform="matrix(1.6186 0 0 -1.6186 94.5181 733.7385)">
		<stop  offset="0" style="stop-color:#F9AC1A"/>
		<stop  offset="1" style="stop-color:#F9C51A"/>
	</linearGradient>
	<path class="st1" d="M54.7,546.1V444.2l0,0c0.2-28,22.7-51,51.7-54c1.6-0.4,2.6-1.4,3-2.1c0.9-1.6,1.8-3.3,2.3-4.9
		c0.4-0.9,1.9-1.1,2.5,0c0.5,1.4,1.6,3.3,2.3,4.9c0.4,0.7,1.4,1.8,3,2.1c29,3,51.6,26.1,51.7,54l0,0v101.9L54.7,546.1L54.7,546.1z"
		/>
	<g>
		<g>
			<g>
				<g>
					<defs>
						<path id="SVGID_2_" d="M54.7,546.1V444.2l0,0c0.2-28,22.7-51,51.7-54c1.6-0.4,2.6-1.4,3-2.1c0.9-1.6,1.8-3.3,2.3-4.9
							c0.4-0.9,1.9-1.1,2.5,0c0.5,1.4,1.6,3.3,2.3,4.9c0.4,0.7,1.4,1.8,3,2.1c29,3,51.6,26.1,51.7,54l0,0v101.9L54.7,546.1
							L54.7,546.1z"/>
					</defs>
					<clipPath id="SVGID_3_">
						<use xlink:href="#SVGID_2_"  style="overflow:visible;"/>
					</clipPath>
					<g class="st2">
						<path class="st3" d="M148.7,509c-7,0-9.2,2.8-9.2,7.9c0,8.8,10.7,19,10.7,35c0,11.6-6.9,21.5-22,21.5h-7v-14.3h3.2
							c5.5,0,7.4-3.2,7.4-8.4c0-11.8-6.5-22.5-6.5-31.5c0-9,3-13.2,13.7-15.5c-10.7-2.3-13.7-9.3-13.7-18.3c0-8.8,6.5-16,6.5-28
							c0-5.3-2.6-9.3-9.2-9.3c-2.5,0-4.4,0-6.2,0v-10.9c16.2-8.3,29.7,6.5,29.7,17.4c0,15.8-6.7,28.2-6.7,36.8
							c0,4.9,2.1,7.2,9.2,7.2h4.8v10.6L148.7,509L148.7,509z M109.8,447.9c-1.6,0-3.5,0-5.6,0c-6.5,0-9.2,4.2-9.2,9.3
							c0,12,6.5,19.2,6.5,28c0,9-3.5,16-14.4,18.3c10.7,2.3,14.4,6.5,14.4,15.5c0,8.8-6.5,19.7-6.5,31.5c0,5.3,1.9,8.4,7.4,8.4h3.2
							v14.3h-7c-15.1,0-22-9.7-22-21.5c0-16,10.7-26.4,10.7-35c0-5.1-1.8-7.9-8.8-7.9h-5.8v-10.6h5.8c7,0,8.8-2.3,8.8-7.2
							c0-8.8-6.7-20.9-6.7-36.8c0-10.9,13.2-25.5,29.2-17.6V447.9z"/>
					</g>
				</g>
			</g>
		</g>
	</g>
	<path class="st4" d="M169.9,552.8c-0.7,1.8-0.9,3.9-1.1,5.6c0,0,0,0,0,0.2v36.6c0,3.2-2.6,5.8-5.8,5.8H63c-3.2,0-5.8-2.6-5.8-5.8
		v-36.6c0,0,0,0,0-0.2c-0.2-1.8-0.4-3.9-1.1-5.6c-1.4-4-6.2-5.8-6.2-5.8l0.4-2.3h125.3l0.4,2.3C176,547,171.3,548.6,169.9,552.8z"/>
	<path class="st5" d="M169,573.2h-39.1c-2.5,0-4.4-1.9-4.4-4.4c0-2.5,1.9-4.4,4.4-4.4h38.9v8.8H169z"/>
	<path class="st5" d="M57.4,564.4h38.9c2.5,0,4.4,1.9,4.4,4.4c0,2.5-1.9,4.4-4.4,4.4H57.4L57.4,564.4L57.4,564.4z"/>
</g>
</svg>
