<svg xmlns="http://www.w3.org/2000/svg" viewBox="0 0 400 400"><style>.st0 {fill: #189048;}</style><path class="st0" d="M213.1 228.3l61.3-17.6.4-.2 18-4.5-37.8 19.7-9.8.7-32.1 1.9zm-93.5-21.9L117 234l28.7-1.7 51.7-25.6-8.5-17.5-69.3 17.2zm29.9 99.1l-5.4-13.9-16.1 5.9-.4.6 11.9-4.3 4.8 4.9-14 8.2-2.7 5 8.3-4.8h3.7l-.5 21.7 9.8-11.9.6-11.4zm24.8 50.3l-.4-.6-6.9-13.7-17 6.4 12.4-1.5 5.4 2.5-13.4 7.6v3.2l4.2-3.6 6.2-.3-1.6 24.2 9.8-10.8 1.3-13.4zm95.7 6.5v.4c0 3.2.4 7.1.8 10.8.1.5.1 1 .1 1.4 2.7-8 6.3-18.5 8.7-25.4 1.3-3.9 2.3-6.8 2.6-7.7l1.3-37.1-63.5-34 15.8 10.1 34.2 81.5zM126 250.5l-11.6 2.4v1.2l16.4 3.4 37.5 28.5 15.1.2-26.8-16.9-30.6-18.8zm208.4-111.9L265 186.2l40.8-12.2 52.7-41.9-24.1 6.5zM115 207.8l-27.6 6.4 26.4 3.8 1.2-10.2zm-72.4 50L79.1 246H110l2.5-17.8-69.6 28.9-.3.7zm71.1-38.8l-22 8.1 21.1.2.9-8.3zm113.9 127.7l-23.3-44.9-6.3-1.8v71.5l-.2 8.5 29.8-33.3zM191.2 294H172l-5.3 11.8-14.7.2v9.4l26 10.3 12-17.7 1.2-14zm2.8 25l-6.3 2.7 1.2 20.3-11.5 10.3 1.7 9.3 13 2L194 319zM381.3 82.7l-188.2 105 8.5 17.5 50.4-15 99.2-68 30.1-39.5zM106.2 185.5l10.9-8.2 3.5-17-14.4 25.2zM177 357.7zm111.4-54.9l16.2 20.8-4.4-14.9-24.3-31-54.7-33.3-15-1-24.5 2.1 100 53.2 6.7 4.1zm-39-107.6l-48.2 14.4-44.7 22.1 38-2.3 78.3-22.5 52.9-34.4-24.9 7.4-51.4 15.3zm50.8-16.6zm-20-170.2L131.4 128.6l-13.7 67.6 54.5-51.6-.3.2L264.5 58l15.7-49.6zm10.1 31.3l-95.2 89.2 52.6-25.6 36.5-41.8 6.1-21.8zm-27.9 104.5l81.3-45.3 46.6-60.3L185.8 138 130 190.7l-12.9 12.2 72.3-17.9 73-40.8zM115.8 246.8l90-7.6 33.6-6.3 4.6 2.3c3.3-1.1 9.1-3 17.6-5.8L120 238l-4.2 8.8zm106.4-6.5l26.1 1.8-9.7-4.9-16.4 3.1zm-89.3 9.2l79.8 49.6.3.6 21.6 50.3v.5l-3.9 38.2 27.6-48.6-25.9-56.6-58.6-37.5-11.9 1-29 2.5zm28.8-3.8zm-134.5 1.4L40.8 226l33.7-8.8 1.6-.4 22.7 3.3L69.2 231l28 .3L41 255l-13.8-7.9zm12.4-8l-9.3 6.6.5 1.1 8.9-3 7 3.7-.1-1.9-7-6.5zm-3.8 19.3L21 251.3v15.5L34.3 280h4.4l-4-8.5 1.1-13.1z"/></svg>