<svg version="1.1"
     xmlns="http://www.w3.org/2000/svg" xmlns:xlink="http://www.w3.org/1999/xlink" xmlns:a="http://ns.adobe.com/AdobeSVGViewerExtensions/3.0/"
     x="0px" y="0px" width="36px" height="28.1px" viewBox="0 0 36 28.1" style="enable-background:new 0 0 36 28.1;"
     xml:space="preserve">
<style type="text/css">
    .st0{fill:#1A82E2;}
</style>
<defs>
</defs>
<g>
    <path class="st0" d="M35.9,17.8c-0.2-0.9-0.7-1.6-1.5-1.9c-0.6-0.2-1.2-0.3-2-0.3c-4.2,0.3-10,5.6-10.9,6.4
        c11.4,3,14.6-1.1,14.5-3.6C36,18.2,36,18,35.9,17.8z"/>
    <path class="st0" d="M35.8,15.7c-0.8-5.2-3-11.8-3-11.8C32.1,1.7,30.9,0,27.2,0c-3.6,0-7.3,2.9-12.2,7.2c0,0-6.7,6.4-11.5,6.7
        c-1.6,0.1-2.8-0.4-3.4-1.4c1.5,7.3,3,11.8,3,11.8c0.7,2.2,1.9,3.8,5.6,3.8s7.3-2.9,12.2-7.2c0,0,6.7-6.4,11.5-6.7
        C34,14.2,35.2,14.7,35.8,15.7z M7.4,20.7l3.9-9.5l3.8,13.4L7.4,20.7z M18.1,13.7L21,3.3l3.6,13.6L18.1,13.7z M30.9,2
        c0,0,2.1,5.5,3.2,11.6L28.3,8L30.9,2z"/>
    <path class="st0" d="M1.6,12.3c0.6,0.2,1.2,0.3,2,0.3c4.2-0.3,10-5.6,10.9-6.4C3.1,3.2-0.1,7.3,0,9.7c0,0.2,0,0.4,0.1,0.6
        C0.3,11.3,0.8,11.9,1.6,12.3z"/>
</g>
</svg>