<svg xmlns="http://www.w3.org/2000/svg" viewBox="0 0 400 400"><style>.st0 {fill: #333;}</style><path class="st0" d="M383.294 197.99c0 101.24-82.06 183.31-183.297 183.31-101.226 0-183.29-82.072-183.29-183.31 0-101.226 82.064-183.29 183.29-183.29 101.236 0 183.297 82.064 183.297 183.29zM280.144 82.52c-18.626.636-34.876 10.91-46.978 25.096-13.392 15.584-22.307 34.04-28.728 52.886-11.487-9.417-20.35-21.61-38.776-26.907-14.248-4.1-29.214-2.407-42.967 7.84-6.517 4.866-11.01 12.217-13.147 19.143-5.523 17.972 5.813 33.974 10.97 39.722l11.27 12.07c2.314 2.36 7.914 8.534 5.18 17.385-2.946 9.63-14.555 15.854-26.46 12.19-5.317-1.64-12.944-5.592-11.24-11.167.71-2.266 2.34-3.99 3.226-5.948.788-1.686 1.178-2.967 1.422-3.72 2.176-7.08-.798-16.324-8.4-18.68-7.09-2.163-14.342-.438-17.16 8.69-3.197 10.376 1.775 29.21 28.366 37.398 31.16 9.578 57.514-7.39 61.254-29.514 2.36-13.845-3.907-24.144-15.365-37.392l-9.34-10.33c-5.65-5.652-7.6-15.288-1.74-22.69 4.934-6.258 11.966-8.91 23.507-5.78 16.826 4.563 24.322 16.24 36.83 25.657-5.157 16.953-8.534 33.96-11.587 49.215l-1.88 11.367c-8.947 46.912-15.774 72.685-33.52 87.477-3.573 2.55-8.693 6.346-16.392 6.617-4.042.13-5.342-2.66-5.404-3.87-.09-2.825 2.298-4.125 3.882-5.4 2.378-1.3 5.964-3.45 5.713-10.31-.255-8.125-6.992-15.166-16.702-14.845-7.29.232-18.393 7.087-17.972 19.652.434 12.97 12.51 22.684 30.724 22.06 9.74-.336 31.486-4.28 52.918-29.772 24.933-29.19 31.91-62.676 37.15-87.162l5.868-32.365c3.244.412 6.73.676 10.508.76 31.068.657 46.603-15.43 46.838-27.138.158-7.08-4.644-14.058-11.373-13.885-4.806.13-10.847 3.335-12.296 9.984-1.426 6.527 9.88 12.417 1.053 18.14-6.276 4.067-17.524 6.925-33.372 4.608l2.884-15.92c5.876-30.2 13.127-67.33 40.635-68.236 2.015-.097 9.347.084 9.52 4.93.046 1.616-.363 2.047-2.25 5.755-1.943 2.884-2.67 5.35-2.58 8.175.274 7.71 6.13 12.77 14.615 12.475 11.348-.374 14.618-11.42 14.425-17.097-.47-13.347-14.527-21.78-33.132-21.167z"/></svg>