<svg xmlns="http://www.w3.org/2000/svg" viewBox="-369 339.5 122.5 122.5"><style>.st0{fill:#464342;}</style><path class="st0" d="M-357.9 400.7c0 19.8 11.5 37 28.3 45.1l-23.9-65.5c-2.8 6.3-4.4 13.2-4.4 20.4zm84-2.5c0-6.2-2.2-10.5-4.1-13.8-2.5-4.1-4.9-7.6-4.9-11.8 0-4.6 3.5-8.9 8.4-8.9h.6c-8.9-8.2-20.8-13.2-33.9-13.2-17.5 0-32.9 9-41.9 22.6 1.2 0 2.3.1 3.2.1 5.2 0 13.4-.6 13.4-.6 2.7-.2 3 3.8.3 4.1 0 0-2.7.3-5.7.5l18.3 54.3 11-32.9-7.8-21.4c-2.7-.2-5.3-.5-5.3-.5-2.7-.2-2.4-4.3.3-4.1 0 0 8.3.6 13.2.6 5.2 0 13.4-.6 13.4-.6 2.7-.2 3 3.8.3 4.1 0 0-2.7.3-5.7.5l18.1 53.9 5-16.7c2.2-6.9 3.8-11.9 3.8-16.2zm-33 6.9l-15 43.7c4.5 1.3 9.2 2 14.2 2 5.8 0 11.4-1 16.7-2.8-.1-.2-.3-.4-.4-.7l-15.5-42.2zm43.2-28.4c.2 1.6.3 3.3.3 5.2 0 5.1-1 10.8-3.8 18l-15.3 44.3c14.9-8.7 24.9-24.8 24.9-43.3 0-8.9-2.2-17.1-6.1-24.2zm-44-34.4c-32.2 0-58.4 26.2-58.4 58.4s26.2 58.4 58.4 58.4 58.4-26.2 58.4-58.4-26.2-58.4-58.4-58.4zm0 114.2c-30.7 0-55.8-25-55.8-55.8 0-30.7 25-55.8 55.8-55.8 30.7 0 55.8 25 55.8 55.8-.1 30.8-25.1 55.8-55.8 55.8z"/></svg>